<?xml version="1.0" standalone="no"?>
<!DOCTYPE svg PUBLIC "-//W3C//DTD SVG 20010904//EN"
 "http://www.w3.org/TR/2001/REC-SVG-20010904/DTD/svg10.dtd">
<svg version="1.0" xmlns="http://www.w3.org/2000/svg"
 width="512.000000pt" height="512.000000pt" viewBox="0 0 512.000000 512.000000"
 preserveAspectRatio="xMidYMid meet">
<metadata>
Created by potrace 1.15, written by Peter Selinger 2001-2017
</metadata>
<g transform="translate(0.000000,512.000000) scale(0.100000,-0.100000)"
fill="#000000" stroke="none">
<path d="M2300 5113 c-126 -15 -301 -48 -397 -73 -1007 -268 -1761 -1130
-1888 -2160 -20 -163 -20 -477 0 -640 127 -1030 881 -1892 1888 -2160 236 -62
343 -75 657 -75 314 0 421 13 657 75 1007 268 1761 1130 1888 2160 20 163 20
477 0 640 -127 1030 -881 1892 -1888 2160 -220 58 -337 72 -622 75 -143 2
-276 1 -295 -2z m550 -1278 c256 -38 523 -121 754 -236 l106 -53 0 -544 c0
-503 -1 -551 -20 -641 -50 -249 -181 -479 -394 -698 -65 -68 -124 -123 -130
-123 -6 0 -135 100 -286 223 l-275 222 0 260 0 260 380 256 380 256 3 160 2
159 -87 42 c-157 74 -317 117 -483 129 l-89 6 -45 56 -46 56 32 3 c47 5 278
-26 408 -55 137 -30 250 -70 345 -121 l70 -38 6 -60 c4 -32 7 -138 8 -234 l1
-175 -385 -244 -385 -245 0 -206 0 -206 214 -164 c118 -91 221 -166 229 -168
23 -5 158 137 220 230 95 143 164 311 201 490 13 62 16 148 16 445 0 202 -3
419 -7 481 l-6 114 -121 58 c-211 102 -449 173 -679 201 -143 17 -472 7 -612
-20 -216 -41 -446 -117 -600 -199 l-70 -37 -3 -485 c-2 -323 1 -512 8 -565 32
-222 144 -441 325 -633 48 -51 92 -92 98 -91 7 0 107 78 222 173 l210 172 0
208 0 209 -375 236 -375 237 -3 241 -2 241 107 47 c144 63 315 119 441 145
115 23 322 38 322 24 0 -5 -24 -33 -52 -61 -52 -50 -54 -51 -143 -63 -131 -18
-339 -72 -435 -114 -141 -61 -130 -41 -130 -224 l0 -158 385 -249 385 -249 0
-186 c0 -102 -3 -222 -7 -267 l-6 -82 -273 -215 c-150 -119 -277 -216 -281
-216 -16 0 -151 130 -216 208 -158 190 -259 398 -307 632 -19 91 -20 137 -20
619 l0 521 53 30 c276 160 584 256 942 294 80 8 363 -3 475 -19z m-360 -795
c0 -203 -3 -370 -7 -370 -3 0 -27 14 -53 30 l-47 30 -5 280 c-2 154 -7 283
-11 287 -10 9 -199 -21 -322 -53 -82 -21 -139 -42 -217 -82 -5 -2 -8 23 -8 56
l0 59 60 27 c120 54 369 102 543 105 l67 1 0 -370z m443 340 c118 -20 268 -65
312 -94 21 -14 25 -24 25 -65 0 -26 -2 -50 -5 -53 -3 -2 -31 8 -62 23 -78 38
-384 109 -469 109 l-24 0 0 -213 c0 -118 -3 -248 -6 -289 l-7 -75 -44 -26
c-24 -15 -46 -27 -48 -27 -3 0 -5 167 -5 372 l0 371 110 -7 c61 -3 161 -15
223 -26z m-989 -790 l316 -215 -1 -150 0 -150 -162 -119 -161 -119 -39 44
c-104 117 -224 340 -272 504 -26 87 -26 96 -20 258 4 92 11 167 15 165 4 -2
150 -100 324 -218z m1534 14 c-3 -176 -5 -195 -31 -268 -55 -157 -162 -347
-260 -460 l-34 -40 -167 124 -167 123 3 145 3 146 320 217 c176 120 324 214
328 210 5 -5 7 -94 5 -197z m-991 -836 c-4 -40 -7 -176 -8 -303 -1 -126 -4
-237 -8 -247 -5 -14 -19 -10 -106 31 -93 44 -238 135 -310 194 l-29 25 32 27
c173 145 419 344 426 345 5 0 6 -32 3 -72z m358 -114 l225 -186 -37 -30 c-82
-66 -192 -134 -297 -184 -61 -29 -114 -50 -118 -48 -8 5 -11 634 -3 634 2 0
106 -84 230 -186z"/>
</g>
</svg>
